<mxfile host="app.diagrams.net" modified="2023-12-18T01:40:39.057Z" agent="Mozilla/5.0 (Windows NT 10.0; Win64; x64) AppleWebKit/537.36 (KHTML, like Gecko) Chrome/120.0.0.0 Safari/537.36" version="22.1.11" etag="o_rZVXF1NvpIu0WPV_W3" type="github">
  <diagram name="第 1 页" id="D1TzzIXAI3c-7DYu6P_8">
    <mxGraphModel>
      <root>
        <mxCell id="0" />
        <mxCell id="1" parent="0" />
      </root>
    </mxGraphModel>
  </diagram>
</mxfile>
